# xmcd CD database file
#
# Track frame offsets:
#	150
#	13122
#	28781
#	44180
#	62443
#	78538
#	91445
#	102952
#	123120
#	140095
#	157556
#	177971
#	196187
#	210570
#
# Disc length: 3051 seconds
#
# Revision: 0
# Processed by: cddbd v1.5.2PL0 Copyright (c) Steve Scherf et al.
# Submitted via: CDex 1.70beta2
#
DISCID=b70be90e
DTITLE=Dave Harris - The Hillbilly blues
DYEAR=1997
DGENRE=Blues
TTITLE0=She's My Baby
TTITLE1=The Hillbilly Blues
TTITLE2=the Good - time Banjo Blues
TTITLE3=The Rain Song
TTITLE4=Slim's Railroad Blues
TTITLE5=Blues for christmas
TTITLE6=Me and my harp
TTITLE7=Pay the piper
TTITLE8=Good man
TTITLE9=The banjo Boogie
TTITLE10=Long Gone and Forgotten
TTITLE11=The Trees Fell Down
TTITLE12=The more you have
TTITLE13=When the money's All Gone
EXTD=YEAR: 1997
EXTT0=
EXTT1=
EXTT2=
EXTT3=
EXTT4=
EXTT5=
EXTT6=
EXTT7=
EXTT8=
EXTT9=
EXTT10=
EXTT11=
EXTT12=
EXTT13=
PLAYORDER=
